<svg height="496pt" viewBox="0 0 496 496" width="496pt" xmlns="http://www.w3.org/2000/svg"><path d="m448 88h16c0-30.878906-25.121094-56-56-56v16c22.054688 0 40 17.945312 40 40zm0 0"/><path d="m80 352h16c0-26.472656 21.527344-48 48-48v-16c-35.289062 0-64 28.710938-64 64zm0 0"/><path d="m328 416c-12.734375 0-23.976562 6.097656-31.304688 15.40625l-68.121093-34.0625c7.28125-13.511719 11.425781-28.953125 11.425781-45.34375 0-23.59375-8.59375-45.191406-22.761719-61.929688l34.992188-34.992187c7.847656 5.59375 17.417969 8.921875 27.769531 8.921875 26.472656 0 48-21.527344 48-48 0-10.351562-3.328125-19.921875-8.921875-27.769531l32.648437-32.644531c15.273438 12.726562 34.890626 20.414062 56.273438 20.414062 48.519531 0 88-39.480469 88-88s-39.480469-88-88-88c-45.824219 0-83.535156 35.214844-87.59375 80h-73.214844c-3.71875-18.230469-19.878906-32-39.191406-32-22.054688 0-40 17.945312-40 40s17.945312 40 40 40c19.3125 0 35.472656-13.769531 39.191406-32h73.214844c1.65625 18.265625 8.890625 34.929688 20.007812 48.273438l-32.644531 32.648437c-7.847656-5.59375-17.417969-8.921875-27.769531-8.921875-26.472656 0-48 21.527344-48 48 0 10.351562 3.328125 19.921875 8.921875 27.769531l-34.992187 34.992188c-16.738282-14.167969-38.335938-22.761719-61.929688-22.761719-17.664062 0-34.167969 4.878906-48.398438 13.230469l-29.90625-54.832031c8.671876-7.34375 14.304688-18.175782 14.304688-30.398438 0-22.054688-17.945312-40-40-40s-40 17.945312-40 40 17.945312 40 40 40c4.078125 0 7.9375-.792969 11.648438-1.9375l30.757812 56.394531c-21.007812 17.621094-34.40625 44.039063-34.40625 73.542969 0 23.59375 8.59375 45.191406 22.761719 61.929688l-22.609375 22.605468c-4.761719-2.816406-10.230469-4.535156-16.152344-4.535156-17.648438 0-32 14.351562-32 32s14.351562 32 32 32 32-14.351562 32-32c0-5.921875-1.71875-11.390625-4.535156-16.152344l22.605468-22.609375c16.738282 14.167969 38.335938 22.761719 61.929688 22.761719 30.769531 0 58.136719-14.609375 75.71875-37.199219l69.800781 34.894531c-.894531 3.3125-1.519531 6.71875-1.519531 10.304688 0 22.054688 17.945312 40 40 40s40-17.945312 40-40-17.945312-40-40-40zm-120-304c-13.230469 0-24-10.769531-24-24s10.769531-24 24-24 24 10.769531 24 24-10.769531 24-24 24zm-192 72c0-13.230469 10.769531-24 24-24s24 10.769531 24 24-10.769531 24-24 24-24-10.769531-24-24zm392-168c39.695312 0 72 32.304688 72 72s-32.304688 72-72 72-72-32.304688-72-72 32.304688-72 72-72zm-128 168c17.648438 0 32 14.351562 32 32s-14.351562 32-32 32-32-14.351562-32-32 14.351562-32 32-32zm-248 296c-8.824219 0-16-7.175781-16-16s7.175781-16 16-16 16 7.175781 16 16-7.175781 16-16 16zm112-48c-44.113281 0-80-35.886719-80-80s35.886719-80 80-80 80 35.886719 80 80-35.886719 80-80 80zm184 48c-13.230469 0-24-10.769531-24-24s10.769531-24 24-24 24 10.769531 24 24-10.769531 24-24 24zm0 0"/><path d="m464 296h-16v-80h-16v80h-16v-32h-16v32h-16v-48h-16v48h-16v16h128v-112h-16zm0 0"/><path d="m352 328h128v16h-128zm0 0"/><path d="m352 360h96v16h-96zm0 0"/><path d="m464 360h16v16h-16zm0 0"/><path d="m0 24h128v16h-128zm0 0"/><path d="m0 56h96v16h-96zm0 0"/><path d="m112 56h16v16h-16zm0 0"/><path d="m24 88h16v16h-16zm0 0"/><path d="m56 88h16v16h-16zm0 0"/><path d="m88 88h16v16h-16zm0 0"/></svg>